:FULLY-SPECIFIED
:FORCE-ALL-JOINTS-BE-3DOF
:DEGREES
374
root 6.09325 16.5294 -15.5577 9.14101 -18.3261 -6.23774
lfemur -41.9747 20.0601 -12.0376
ltibia 55.1316 -0 0
lfoot -6.45508 1.44699 -0.121025
ltoes 13.5263 -0 0
rfemur -22.0575 -2.66048 30.7841
rtibia 40.404 -0 0
rfoot -21.6309 0.710002 0.00471339
rtoes 16.8223 -0 0
lowerback 4.59278 2.13268 3.41629
upperback 2.41205 2.96163 0.846839
thorax 0.0660085 1.50278 -1.18289
lowerneck -7.40354 -1.37531 3.17121
upperneck 0.0237394 -2.16334 2.17993
head 1.25288 -1.03599 0.0734314
lclavicle 6.46952e-15 -2.12645e-15 1.27336e-31
lhumerus -40.4498 -22.7996 94.7209
lradius 55.1642 -0 0
lwrist 17.1344 0 0
lhand -19.81 2.94486 0.116865
lfingers 7.12502 -0 0
lthumb 6.51991 32.7435 0.0957599
rclavicle 6.46952e-15 -2.12645e-15 1.27336e-31
rhumerus -38.3615 13.0587 -93.7504
rradius 60.4938 -0 0
rwrist 9.1765 0 0
rhand -14.4377 -21.1319 0.458074
rfingers 7.12502 -0 0
rthumb 11.7033 -50.6381 0.45178
375
root 6.04722 16.5339 -15.4378 9.27228 -19.1831 -6.43253
lfemur -43.4073 20.0929 -12.6757
ltibia 54.2442 -0 0
lfoot -7.00454 1.92109 -0.0848619
ltoes 13.4755 -0 0
rfemur -21.3458 -1.92014 30.9807
rtibia 40.0831 -0 0
rfoot -21.9624 0.679341 0.00330579
rtoes 17.2518 -0 0
lowerback 4.72694 2.23713 3.58421
upperback 2.43309 3.11264 0.798966
thorax 0.0231845 1.57879 -1.33315
lowerneck -7.39208 -1.21128 3.34446
upperneck -0.0312608 -1.95563 2.06864
head 1.22664 -0.935083 0.0174648
lclavicle 6.83368e-15 -2.88104e-15 8.93125e-32
lhumerus -40.2172 -22.7551 94.2496
lradius 55.0422 -0 0
lwrist 17.2035 0 0
lhand -20.6116 2.63154 0.0819439
lfingers 7.12502 -0 0
lthumb 5.74714 32.4771 0.0671473
rclavicle 6.83368e-15 -2.88104e-15 8.93125e-32
rhumerus -38.3036 13.4686 -93.8623
rradius 59.6334 -0 0
rwrist 9.54221 0 0
rhand -13.3358 -20.2447 0.321027
rfingers 7.12502 -0 0
rthumb 12.7668 -49.7312 0.316623
376
root 6.00927 16.5377 -15.3389 9.38342 -19.8896 -6.59556
lfemur -44.5892 20.1087 -13.2026
ltibia 53.5122 -0 0
lfoot -7.45733 2.3117 -0.0516277
ltoes 13.4335 -0 0
rfemur -20.7573 -1.31151 31.1496
rtibia 39.8184 -0 0
rfoot -22.2358 0.65406 0.00201144
rtoes 17.606 -0 0
lowerback 4.83782 2.32297 3.72289
upperback 2.45035 3.23719 0.759522
thorax -0.0122837 1.64138 -1.45712
lowerneck -7.38226 -1.07603 3.48735
upperneck -0.0769172 -1.78442 1.97672
head 1.20492 -0.851886 -0.028725
lclavicle 7.13401e-15 -3.50336e-15 5.4345e-32
lhumerus -40.0257 -22.7171 93.8612
lradius 54.9417 -0 0
lwrist 17.2605 0 0
lhand -21.2726 2.37349 0.0498435
lfingers 7.12502 -0 0
lthumb 5.10984 32.2577 0.0408447
rclavicle 7.13401e-15 -3.50336e-15 5.4345e-32
rhumerus -38.2564 13.8067 -93.9545
rradius 58.9237 -0 0
rwrist 9.84381 0 0
rhand -12.4287 -19.5151 0.195185
rfingers 7.12502 -0 0
rthumb 13.6422 -48.9852 0.192511
377
root 5.98062 16.5405 -15.2643 9.46903 -20.4225 -6.72003
lfemur -45.4814 20.1139 -13.6005
ltibia 52.9598 -0 0
lfoot -7.79894 2.60636 -0.0244996
ltoes 13.4019 -0 0
rfemur -20.3119 -0.853264 31.2813
rtibia 39.6187 -0 0
rfoot -22.4422 0.634983 0.000954614
rtoes 17.8733 -0 0
lowerback 4.92165 2.38758 3.82768
upperback 2.46332 3.33121 0.729772
thorax -0.0391437 1.68858 -1.55071
lowerneck -7.37462 -0.973972 3.59521
upperneck -0.111555 -1.65525 1.90726
head 1.18848 -0.789105 -0.0636075
lclavicle 7.36069e-15 -3.97307e-15 2.57925e-32
lhumerus -39.8814 -22.6876 93.5682
lradius 54.8658 -0 0
lwrist 17.3035 0 0
lhand -21.7713 2.17903 0.0236516
lfingers 7.12502 -0 0
lthumb 4.629 32.0923 0.0193819
rclavicle 7.36069e-15 -3.97307e-15 2.57925e-32
rhumerus -38.2211 14.062 -94.024
rradius 58.3882 -0 0
rwrist 10.0715 0 0
rhand -11.7451 -18.9658 0.0925672
rfingers 7.12502 -0 0
rthumb 14.3019 -48.4235 0.0913005
378
root 5.96252 16.5423 -15.2171 9.52391 -20.7592 -6.79933
lfemur -46.0449 20.1142 -13.8518
ltibia 52.6109 -0 0
lfoot -8.0147 2.79243 -0.00645482
ltoes 13.3819 -0 0
rfemur -20.0301 -0.564339 31.3662
rtibia 39.4925 -0 0
rfoot -22.5726 0.622933 0.000251524
rtoes 18.0422 -0 0
lowerback 4.97467 2.42832 3.89392
upperback 2.47149 3.39061 0.710988
thorax -0.0561526 1.71837 -1.60984
lowerneck -7.36969 -0.909506 3.66335
upperneck -0.133516 -1.57367 1.86334
head 1.17808 -0.749447 -0.0856538
lclavicle 7.5039e-15 -4.26982e-15 6.79597e-33
lhumerus -39.7903 -22.6686 93.3832
lradius 54.8178 -0 0
lwrist 17.3307 0 0
lhand -22.0864 2.05628 0.00623123
lfingers 7.12502 -0 0
lthumb 4.32524 31.9879 0.00510638
rclavicle 7.5039e-15 -4.26982e-15 6.79597e-33
rhumerus -38.199 14.2233 -94.0678
rradius 58.0498 -0 0
rwrist 10.2153 0 0
rhand -11.3138 -18.6195 0.0243831
rfingers 7.12502 -0 0
rthumb 14.7179 -48.0694 0.0240496
379
root 5.95621 16.5429 -15.2007 9.54319 -20.8765 -6.8271
lfemur -46.2414 20.1137 -13.9394
ltibia 52.4892 0 0
lfoot -8.08989 2.85728 0
ltoes 13.3749 0 0
rfemur -19.9317 -0.463717 31.3962
rtibia 39.4485 0 0
rfoot -22.618 0.618733 0
rtoes 18.1011 0 0
lowerback 4.99316 2.4425 3.91702
upperback 2.47433 3.41131 0.704442
thorax -0.0620885 1.72875 -1.63046
lowerneck -7.36796 -0.887037 3.6871
upperneck -0.141185 -1.54524 1.84803
head 1.17445 -0.735625 -0.0933401
lclavicle 7.55382e-15 -4.37326e-15 0
lhumerus -39.7586 -22.6619 93.3187
lradius 54.8011 0 0
lwrist 17.3402 0 0
lhand -22.1962 2.01352 0
lfingers 7.12502 0 0
lthumb 4.21936 31.9515 0
rclavicle 7.55382e-15 -4.37326e-15 0
rhumerus -38.1913 14.2795 -94.0831
rradius 57.9319 0 0
rwrist 10.2654 0 0
rhand -11.1636 -18.4989 0
rfingers 7.12502 0 0
rthumb 14.8629 -767.946 0
380
root 5.94943 16.542 -15.1805 9.51727 -20.9579 -6.81985
lfemur -46.136 20.0004 -13.8742
ltibia 52.4013 -0 0
lfoot -8.07907 2.93755 0.00114759
ltoes 13.2912 -0 0
rfemur -19.967 -0.571586 31.3665
rtibia 39.6543 -0 0
rfoot -22.468 0.603951 -0.00295805
rtoes 18.1701 -0 0
lowerback 4.98718 2.45513 3.89985
upperback 2.46882 3.42719 0.693044
thorax -0.0641289 1.73653 -1.63307
lowerneck -7.3607 -0.875885 3.7048
upperneck -0.117506 -1.53243 1.84874
head 1.18107 -0.728556 -0.0956815
lclavicle 7.3967e-15 -4.43873e-15 -1.35384e-32
lhumerus -39.7893 -22.6403 93.3238
lradius 54.7811 -0 0
lwrist 17.3488 0 0
lhand -22.1475 2.03007 0.00106234
lfingers 7.12502 -0 0
lthumb 4.26637 31.9663 0.00091711
rclavicle 7.3967e-15 -4.43873e-15 -1.35384e-32
rhumerus -38.2345 14.2601 -94.0771
rradius 57.9446 -0 0
rwrist 10.2521 0 0
rhand -11.2043 -18.4945 -0.000234128
rfingers 7.12502 -0 0
rthumb 14.8237 -47.9439 -0.000108427
381
root 5.92996 16.5394 -15.1226 9.44275 -21.1916 -6.7988
lfemur -45.8348 19.6748 -13.6887
ltibia 52.1491 -0 0
lfoot -8.04802 3.16783 0.00435561
ltoes 13.0509 -0 0
rfemur -20.0681 -0.88113 31.2817
rtibia 40.2446 -0 0
rfoot -22.0376 0.561506 -0.0112285
rtoes 18.3679 -0 0
lowerback 4.97001 2.49135 3.85059
upperback 2.45299 3.47272 0.660336
thorax -0.0699847 1.75884 -1.64056
lowerneck -7.33984 -0.843904 3.75557
upperneck -0.0495724 -1.49567 1.8508
head 1.20005 -0.708273 -0.102394
lclavicle 6.94594e-15 -4.62654e-15 -5.13816e-32
lhumerus -39.8774 -22.5785 93.3383
lradius 54.7237 -0 0
lwrist 17.3734 0 0
lhand -22.0078 2.07754 0.00403196
lfingers 7.12502 -0 0
lthumb 4.40122 32.0088 0.00348073
rclavicle 6.94594e-15 -4.62654e-15 -5.13816e-32
rhumerus -38.3586 14.2044 -94.0596
rradius 57.9809 -0 0
rwrist 10.214 0 0
rhand -11.3209 -18.482 -0.000888588
rfingers 7.12502 -0 0
rthumb 14.7112 -47.9379 -0.000411514
382
root 5.89915 16.5353 -15.0309 9.32439 -21.5613 -6.76475
lfemur -45.3615 19.1576 -13.3994
ltibia 51.75 -0 0
lfoot -7.99884 3.53233 0.00917812
ltoes 12.6707 -0 0
rfemur -20.2271 -1.37136 31.1485
rtibia 41.179 -0 0
rfoot -21.3562 0.494185 -0.0236692
rtoes 18.6811 -0 0
lowerback 4.94277 2.54866 3.77259
upperback 2.42787 3.54479 0.608533
thorax -0.0792597 1.79417 -1.65242
lowerneck -7.30676 -0.793319 3.83596
upperneck 0.0579618 -1.4375 1.85416
head 1.2301 -0.676164 -0.113006
lclavicle 6.23245e-15 -4.92383e-15 -1.08262e-31
lhumerus -40.0167 -22.4805 93.3611
lradius 54.6329 -0 0
lwrist 17.4124 0 0
lhand -21.7866 2.15271 0.00849568
lfingers 7.12502 -0 0
lthumb 4.61468 32.076 0.00733418
rclavicle 6.23245e-15 -4.92383e-15 -1.08262e-31
rhumerus -38.5548 14.1162 -94.0318
rradius 58.0383 -0 0
rwrist 10.1537 0 0
rhand -11.5055 -18.4621 -0.00187231
rfingers 7.12502 -0 0
rthumb 14.5332 -47.9283 -0.00086703
383
root 5.85833 16.5299 -14.9094 9.16672 -22.051 -6.71823
lfemur -44.7409 18.4688 -13.0246
ltibia 51.2212 -0 0
lfoot -7.93365 4.01525 0.0150854
ltoes 12.1669 -0 0
rfemur -20.4361 -2.0216 30.974
rtibia 42.4171 -0 0
rfoot -20.4535 0.404782 -0.0389159
rtoes 19.096 -0 0
lowerback 4.90655 2.62453 3.66919
upperback 2.39449 3.64023 0.539842
thorax -0.0915599 1.84096 -1.66814
lowerneck -7.26283 -0.726368 3.94252
upperneck 0.200441 -1.36043 1.85877
head 1.26989 -0.633614 -0.127039
lclavicle 5.28715e-15 -5.31771e-15 -1.77921e-31
lhumerus -40.201 -22.3507 93.3908
lradius 54.5126 -0 0
lwrist 17.4641 0 0
lhand -21.4936 2.25231 0.0139628
lfingers 7.12502 -0 0
lthumb 4.8975 32.1651 0.0120538
rclavicle 5.28715e-15 -5.31771e-15 -1.77921e-31
rhumerus -38.8148 13.9996 -93.9944
rradius 58.1145 -0 0
rwrist 10.0738 0 0
rhand -11.7501 -18.4358 -0.00307697
rfingers 7.12502 -0 0
rthumb 14.2973 -47.9157 -0.00142497
384
root 5.80884 16.5233 -14.7621 8.97423 -22.6446 -6.65965
lfemur -43.998 17.6286 -12.5825
ltibia 50.58 -0 0
lfoot -7.85453 4.60081 0.0215108
ltoes 11.556 -0 0
rfemur -20.687 -2.81077 30.7656
rtibia 43.9183 -0 0
rfoot -19.3587 0.296058 -0.0555127
rtoes 19.5991 -0 0
lowerback 4.86245 2.71644 3.54374
upperback 2.35386 3.75591 0.456466
thorax -0.106492 1.8977 -1.68722
lowerneck -7.20939 -0.645296 4.0718
upperneck 0.373209 -1.267 1.86462
head 1.31813 -0.582007 -0.144016
lclavicle 4.14094e-15 -5.7953e-15 -2.53668e-31
lhumerus -40.4242 -22.1931 93.4262
lradius 54.3667 -0 0
lwrist 17.5267 0 0
lhand -21.1383 2.37313 0.0199083
lfingers 7.12502 -0 0
lthumb 5.24044 32.2732 0.0171864
rclavicle 4.14094e-15 -5.7953e-15 -2.53668e-31
rhumerus -39.13 13.8585 -93.9485
rradius 58.2068 -0 0
rwrist 9.97688 0 0
rhand -12.0468 -18.4039 -0.00438717
rfingers 7.12502 -0 0
rthumb 14.0113 -47.9004 -0.00203173
385
root 5.752 16.5158 -14.593 8.75127 -23.3263 -6.58936
lfemur -43.1575 16.6572 -12.0914
ltibia 49.8435 -0 0
lfoot -7.76361 5.27325 0.0278915
ltoes 10.8544 -0 0
rfemur -20.9718 -3.7181 30.5303
rtibia 45.6421 -0 0
rfoot -18.1017 0.170853 -0.0720037
rtoes 20.1768 -0 0
lowerback 4.81155 2.82187 3.39958
upperback 2.30698 3.88868 0.360607
thorax -0.123663 1.96284 -1.70915
lowerneck -7.1478 -0.552348 4.22034
upperneck 0.57161 -1.15973 1.87168
head 1.37351 -0.522728 -0.163456
lclavicle 2.82472e-15 -6.34372e-15 -3.28865e-31
lhumerus -40.68 -22.012 93.466
lradius 54.1991 -0 0
lwrist 17.5986 0 0
lhand -20.7302 2.5119 0.0258114
lfingers 7.12502 -0 0
lthumb 5.63426 32.3973 0.0222823
rclavicle 2.82472e-15 -6.34372e-15 -3.28865e-31
rhumerus -39.4919 13.6967 -93.8947
rradius 58.3128 -0 0
rwrist 9.86561 0 0
rhand -12.3874 -18.3673 -0.00568797
rfingers 7.12502 -0 0
rthumb 13.6829 -47.8828 -0.00263413
386
root 5.68915 16.5075 -14.4059 8.50236 -24.0795 -6.50785
lfemur -42.2431 15.5753 -11.5686
ltibia 49.0293 -0 0
lfoot -7.66297 6.01694 0.033705
ltoes 10.0787 -0 0
rfemur -21.2827 -4.72278 30.2751
rtibia 47.5481 -0 0
rfoot -16.7118 0.0320339 -0.0870349
rtoes 20.8156 -0 0
lowerback 4.75496 2.93829 3.24007
upperback 2.25488 4.03539 0.254473
thorax -0.142678 2.03486 -1.73341
lowerneck -7.07942 -0.449762 4.3847
upperneck 0.790989 -1.04115 1.87993
head 1.43471 -0.457163 -0.184884
lclavicle 1.36942e-15 -6.9501e-15 -3.97342e-31
lhumerus -40.9624 -21.8116 93.509
lradius 54.0139 -0 0
lwrist 17.6781 0 0
lhand -20.279 2.66539 0.0311877
lfingers 7.12502 -0 0
lthumb 6.06967 32.5346 0.026923
rclavicle 1.36942e-15 -6.9501e-15 -3.97342e-31
rhumerus -39.8919 13.5182 -93.8341
rradius 58.43 -0 0
rwrist 9.74258 0 0
rhand -12.764 -18.3268 -0.00687264
rfingers 7.12502 -0 0
rthumb 13.3197 -47.8633 -0.00318275
